<svg xmlns="http://www.w3.org/2000/svg" xmlns:xlink="http://www.w3.org/1999/xlink" width="500" zoomAndPan="magnify" viewBox="0 0 375 374.999991" height="500" preserveAspectRatio="xMidYMid meet" version="1.0"><defs><g/></defs><g fill="#000000" fill-opacity="1"><g transform="translate(72.830117, 190.859913)"><g><path d="M 34.953125 -32.203125 L 38.875 0 L 35.1875 0 L 32.4375 -23.734375 L 21.84375 0 L 20.015625 0 L 9.34375 -23.875 L 6.578125 0 L 2.984375 0 L 6.90625 -32.203125 L 9.46875 -32.203125 L 20.96875 -6.390625 L 32.46875 -32.203125 Z M 34.953125 -32.203125 "/></g></g></g><g fill="#000000" fill-opacity="1"><g transform="translate(114.686594, 190.859913)"><g><path d="M 12.921875 -17.65625 L 20.96875 -32.203125 L 25.0625 -32.203125 L 14.71875 -14.03125 L 14.71875 0 L 11.046875 0 L 11.046875 -14.03125 L 0.6875 -32.203125 L 4.875 -32.203125 Z M 12.921875 -17.65625 "/></g></g></g><g fill="#000000" fill-opacity="1"><g transform="translate(140.444428, 190.859913)"><g/></g></g><g fill="#000000" fill-opacity="1"><g transform="translate(153.323345, 190.859913)"><g><path d="M 13.203125 0.453125 C 10.992188 0.453125 9.078125 0.0390625 7.453125 -0.78125 C 5.828125 -1.613281 4.578125 -2.765625 3.703125 -4.234375 C 2.828125 -5.703125 2.359375 -7.359375 2.296875 -9.203125 L 5.984375 -9.203125 C 6.046875 -7.390625 6.703125 -5.898438 7.953125 -4.734375 C 9.210938 -3.566406 10.960938 -2.984375 13.203125 -2.984375 C 15.191406 -2.984375 16.773438 -3.457031 17.953125 -4.40625 C 19.140625 -5.363281 19.734375 -6.65625 19.734375 -8.28125 C 19.734375 -9.539062 19.398438 -10.578125 18.734375 -11.390625 C 18.078125 -12.203125 17.257812 -12.835938 16.28125 -13.296875 C 15.300781 -13.753906 13.984375 -14.242188 12.328125 -14.765625 C 10.304688 -15.472656 8.695312 -16.125 7.5 -16.71875 C 6.300781 -17.320312 5.269531 -18.21875 4.40625 -19.40625 C 3.550781 -20.601562 3.125 -22.1875 3.125 -24.15625 C 3.125 -25.75 3.550781 -27.1875 4.40625 -28.46875 C 5.269531 -29.757812 6.460938 -30.78125 7.984375 -31.53125 C 9.503906 -32.28125 11.210938 -32.65625 13.109375 -32.65625 C 14.921875 -32.65625 16.566406 -32.265625 18.046875 -31.484375 C 19.535156 -30.703125 20.722656 -29.617188 21.609375 -28.234375 C 22.503906 -26.859375 22.96875 -25.34375 23 -23.6875 L 19.3125 -23.6875 C 19.257812 -25.3125 18.632812 -26.632812 17.4375 -27.65625 C 16.238281 -28.6875 14.75 -29.203125 12.96875 -29.203125 C 11.21875 -29.203125 9.773438 -28.773438 8.640625 -27.921875 C 7.515625 -27.066406 6.953125 -25.8125 6.953125 -24.15625 C 6.953125 -22.988281 7.265625 -22.019531 7.890625 -21.25 C 8.515625 -20.488281 9.296875 -19.890625 10.234375 -19.453125 C 11.171875 -19.023438 12.46875 -18.519531 14.125 -17.9375 C 16.113281 -17.289062 17.742188 -16.644531 19.015625 -16 C 20.296875 -15.363281 21.367188 -14.421875 22.234375 -13.171875 C 23.109375 -11.929688 23.546875 -10.300781 23.546875 -8.28125 C 23.546875 -6.625 23.09375 -5.128906 22.1875 -3.796875 C 21.289062 -2.460938 20.054688 -1.421875 18.484375 -0.671875 C 16.921875 0.078125 15.160156 0.453125 13.203125 0.453125 Z M 13.203125 0.453125 "/></g></g></g><g fill="#000000" fill-opacity="1"><g transform="translate(179.173166, 190.859913)"><g><path d="M 13.109375 0 L 9.4375 0 L 9.4375 -28.75 L 1.15625 -28.75 L 1.15625 -32.203125 L 21.390625 -32.203125 L 21.390625 -28.75 L 13.109375 -28.75 Z M 13.109375 0 "/></g></g></g><g fill="#000000" fill-opacity="1"><g transform="translate(201.711274, 190.859913)"><g><path d="M 19.140625 0.453125 C 16.097656 0.453125 13.304688 -0.28125 10.765625 -1.75 C 8.222656 -3.21875 6.210938 -5.222656 4.734375 -7.765625 C 3.265625 -10.316406 2.53125 -13.09375 2.53125 -16.09375 C 2.53125 -19.101562 3.265625 -21.878906 4.734375 -24.421875 C 6.210938 -26.972656 8.222656 -28.984375 10.765625 -30.453125 C 13.304688 -31.921875 16.097656 -32.65625 19.140625 -32.65625 C 22.171875 -32.65625 24.957031 -31.921875 27.5 -30.453125 C 30.050781 -28.984375 32.0625 -26.972656 33.53125 -24.421875 C 35 -21.878906 35.734375 -19.101562 35.734375 -16.09375 C 35.734375 -13.09375 35 -10.316406 33.53125 -7.765625 C 32.0625 -5.222656 30.050781 -3.21875 27.5 -1.75 C 24.957031 -0.28125 22.171875 0.453125 19.140625 0.453125 Z M 19.140625 -2.984375 C 21.460938 -2.984375 23.597656 -3.566406 25.546875 -4.734375 C 27.492188 -5.898438 29.039062 -7.476562 30.1875 -9.46875 C 31.34375 -11.46875 31.921875 -13.675781 31.921875 -16.09375 C 31.921875 -18.519531 31.34375 -20.726562 30.1875 -22.71875 C 29.039062 -24.71875 27.492188 -26.296875 25.546875 -27.453125 C 23.597656 -28.617188 21.460938 -29.203125 19.140625 -29.203125 C 16.804688 -29.203125 14.664062 -28.617188 12.71875 -27.453125 C 10.769531 -26.296875 9.21875 -24.71875 8.0625 -22.71875 C 6.914062 -20.726562 6.34375 -18.519531 6.34375 -16.09375 C 6.34375 -13.675781 6.914062 -11.46875 8.0625 -9.46875 C 9.21875 -7.476562 10.769531 -5.898438 12.71875 -4.734375 C 14.664062 -3.566406 16.804688 -2.984375 19.140625 -2.984375 Z M 19.140625 -2.984375 "/></g></g></g><g fill="#000000" fill-opacity="1"><g transform="translate(239.980051, 190.859913)"><g><path d="M 23.234375 0 L 11.828125 -13.796875 L 8.046875 -13.796875 L 8.046875 0 L 4.375 0 L 4.375 -32.203125 L 13.796875 -32.203125 C 15.847656 -32.203125 17.664062 -31.800781 19.25 -31 C 20.832031 -30.207031 22.054688 -29.113281 22.921875 -27.71875 C 23.796875 -26.320312 24.234375 -24.75 24.234375 -23 C 24.234375 -20.695312 23.503906 -18.722656 22.046875 -17.078125 C 20.597656 -15.441406 18.644531 -14.410156 16.1875 -13.984375 L 27.828125 0 Z M 8.046875 -28.75 L 8.046875 -17.25 L 13.796875 -17.25 C 15.828125 -17.25 17.4375 -17.769531 18.625 -18.8125 C 19.820312 -19.851562 20.421875 -21.25 20.421875 -23 C 20.421875 -24.75 19.820312 -26.144531 18.625 -27.1875 C 17.4375 -28.226562 15.828125 -28.75 13.796875 -28.75 Z M 8.046875 -28.75 "/></g></g></g><g fill="#000000" fill-opacity="1"><g transform="translate(268.037701, 190.859913)"><g><path d="M 12.921875 -17.65625 L 20.96875 -32.203125 L 25.0625 -32.203125 L 14.71875 -14.03125 L 14.71875 0 L 11.046875 0 L 11.046875 -14.03125 L 0.6875 -32.203125 L 4.875 -32.203125 Z M 12.921875 -17.65625 "/></g></g></g><path stroke-linecap="butt" transform="matrix(1.502211, 0, 0, 1.5, 65.034089, 136.49731)" fill="none" stroke-linejoin="miter" d="M 0.000710433 -0.000810991 L 164.263743 -0.000810991 " stroke="#000000" stroke-width="1" stroke-opacity="1" stroke-miterlimit="4"/><path stroke-linecap="butt" transform="matrix(1.501685, 0, 0, 1.6, 65.034089, 230.18105)" fill="none" stroke-linejoin="miter" d="M 0.000710682 -0.000851365 L 90.399146 -0.000851365 " stroke="#000000" stroke-width="1" stroke-opacity="1" stroke-miterlimit="4"/><g fill="#5d959b" fill-opacity="1"><g transform="translate(215.021365, 243.809805)"><g><path d="M 41.09375 -52.140625 C 41.726562 -51.960938 41.910156 -51.59375 41.640625 -51.03125 C 37.398438 -43.945312 33.660156 -36.609375 30.421875 -29.015625 C 27.191406 -21.421875 24.238281 -13.703125 21.5625 -5.859375 C 19.8125 -0.710938 18.179688 4.46875 16.671875 9.6875 C 16.304688 10.9375 15.9375 12.203125 15.5625 13.484375 C 15.320312 14.265625 15.066406 15.035156 14.796875 15.796875 C 14.734375 16.078125 14.648438 16.351562 14.546875 16.625 C 14.203125 17.613281 13.5 18.046875 12.4375 17.921875 C 11.601562 17.859375 11.035156 17.460938 10.734375 16.734375 C 10.421875 15.898438 10.1875 15.066406 10.03125 14.234375 C 9.445312 11.171875 8.910156 8.101562 8.421875 5.03125 C 7.191406 -2.789062 5.984375 -10.613281 4.796875 -18.4375 C 4.429688 -20.976562 4.070312 -23.5 3.71875 -26 C 3.332031 -28.6875 2.941406 -31.375 2.546875 -34.0625 C 2.203125 -36.195312 1.84375 -38.320312 1.46875 -40.4375 C 1.300781 -41.445312 1.128906 -42.445312 0.953125 -43.4375 C 0.910156 -43.625 0.878906 -43.816406 0.859375 -44.015625 C 0.859375 -44.085938 0.84375 -44.175781 0.8125 -44.28125 C 0.8125 -44.28125 0.796875 -44.28125 0.765625 -44.28125 C 0.742188 -44.457031 0.734375 -44.628906 0.734375 -44.796875 C 0.691406 -45.179688 0.65625 -45.570312 0.625 -45.96875 C 0.65625 -46.457031 0.914062 -46.734375 1.40625 -46.796875 C 2.457031 -46.941406 3.097656 -46.484375 3.328125 -45.421875 C 3.328125 -45.390625 3.328125 -45.363281 3.328125 -45.34375 C 3.816406 -43.257812 4.242188 -41.171875 4.609375 -39.078125 C 5.242188 -35.015625 5.875 -30.960938 6.5 -26.921875 C 6.519531 -26.773438 6.546875 -26.628906 6.578125 -26.484375 C 7.160156 -22.546875 7.75 -18.625 8.34375 -14.71875 C 8.601562 -12.789062 8.882812 -10.867188 9.1875 -8.953125 C 9.289062 -8.265625 9.390625 -7.578125 9.484375 -6.890625 C 9.804688 -4.867188 10.113281 -2.851562 10.40625 -0.84375 C 10.894531 2.238281 11.382812 5.328125 11.875 8.421875 C 12.03125 9.378906 12.179688 10.34375 12.328125 11.3125 C 12.347656 11.382812 12.367188 11.457031 12.390625 11.53125 C 12.390625 11.601562 12.40625 11.675781 12.4375 11.75 C 12.46875 11.945312 12.566406 12.035156 12.734375 12.015625 C 12.804688 11.992188 12.875 11.96875 12.9375 11.9375 C 13 11.90625 13.039062 11.867188 13.0625 11.828125 C 13.289062 11.160156 13.5 10.492188 13.6875 9.828125 C 17.257812 -2.691406 21.546875 -14.929688 26.546875 -26.890625 C 28.265625 -30.992188 30.144531 -35.015625 32.1875 -38.953125 C 34.226562 -42.890625 36.40625 -46.765625 38.71875 -50.578125 C 38.90625 -50.929688 39.125 -51.269531 39.375 -51.59375 C 39.820312 -52.101562 40.394531 -52.285156 41.09375 -52.140625 Z M 41.09375 -52.140625 "/></g></g></g><g fill="#5d959b" fill-opacity="1"><g transform="translate(243.9566, 243.809805)"><g><path d="M 18.96875 -8.625 C 18.664062 -7.6875 18.054688 -6.609375 17.140625 -5.390625 C 16.234375 -4.179688 15.097656 -3.398438 13.734375 -3.046875 C 12.367188 -2.703125 11.1875 -2.75 10.1875 -3.1875 C 9.195312 -3.632812 8.65625 -4.820312 8.5625 -6.75 C 7.425781 -4.550781 6.347656 -3.144531 5.328125 -2.53125 C 4.304688 -1.914062 3.238281 -1.679688 2.125 -1.828125 C 0.875 -2.023438 0.03125 -2.507812 -0.40625 -3.28125 C -0.851562 -4.0625 -1.003906 -4.957031 -0.859375 -5.96875 C -0.710938 -6.976562 -0.40625 -7.945312 0.0625 -8.875 C 0.4375 -9.570312 0.945312 -10.210938 1.59375 -10.796875 C 2.25 -11.390625 2.9375 -11.859375 3.65625 -12.203125 C 4.539062 -12.648438 5.429688 -12.859375 6.328125 -12.828125 C 7.222656 -12.804688 8.175781 -12.507812 9.1875 -11.9375 C 9.21875 -11.914062 9.234375 -11.941406 9.234375 -12.015625 C 9.234375 -12.109375 9.253906 -12.226562 9.296875 -12.375 C 9.347656 -12.53125 9.4375 -12.65625 9.5625 -12.75 C 9.894531 -13 10.289062 -13.125 10.75 -13.125 C 11.207031 -13.125 11.5625 -12.894531 11.8125 -12.4375 C 11.851562 -11.84375 11.789062 -11.085938 11.625 -10.171875 C 11.257812 -8.148438 11.257812 -6.695312 11.625 -5.8125 C 12 -4.9375 12.648438 -4.53125 13.578125 -4.59375 C 14.515625 -4.65625 15.722656 -5.578125 17.203125 -7.359375 C 18.691406 -9.140625 19.28125 -9.5625 18.96875 -8.625 Z M 2.46875 -3.890625 C 2.976562 -3.523438 3.566406 -3.578125 4.234375 -4.046875 C 4.898438 -4.515625 5.539062 -5.175781 6.15625 -6.03125 C 6.769531 -6.894531 7.285156 -7.757812 7.703125 -8.625 C 8.128906 -9.488281 8.363281 -10.125 8.40625 -10.53125 C 7.15625 -11.207031 6.082031 -11.320312 5.1875 -10.875 C 4.289062 -10.4375 3.578125 -9.71875 3.046875 -8.71875 C 2.515625 -7.71875 2.195312 -6.742188 2.09375 -5.796875 C 2 -4.847656 2.125 -4.210938 2.46875 -3.890625 Z M 2.46875 -3.890625 "/></g></g></g><g fill="#5d959b" fill-opacity="1"><g transform="translate(261.737092, 243.809805)"><g><path d="M 17.34375 -8.4375 C 17.59375 -8.414062 17.550781 -8.078125 17.21875 -7.421875 C 16.894531 -6.765625 16.351562 -6.007812 15.59375 -5.15625 C 14.84375 -4.3125 14 -3.582031 13.0625 -2.96875 C 12.125 -2.351562 11.191406 -2.070312 10.265625 -2.125 C 9.578125 -2.195312 9.066406 -2.40625 8.734375 -2.75 C 8.398438 -3.09375 8.171875 -3.472656 8.046875 -3.890625 C 7.929688 -4.316406 7.851562 -4.6875 7.8125 -5 C 7.789062 -5.21875 7.765625 -5.382812 7.734375 -5.5 C 7.703125 -5.613281 7.632812 -5.617188 7.53125 -5.515625 C 6.8125 -3.867188 5.570312 -3.046875 3.8125 -3.046875 C 2.820312 -3.046875 2.019531 -3.484375 1.40625 -4.359375 C 0.789062 -5.234375 0.398438 -6.328125 0.234375 -7.640625 C 0.078125 -8.953125 0.207031 -10.285156 0.625 -11.640625 C 0.71875 -12.085938 0.988281 -12.394531 1.4375 -12.5625 C 1.75 -12.6875 2.070312 -12.675781 2.40625 -12.53125 C 2.75 -12.382812 2.929688 -12.164062 2.953125 -11.875 C 2.953125 -11.570312 2.929688 -11.273438 2.890625 -10.984375 C 2.828125 -10.765625 2.785156 -10.550781 2.765625 -10.34375 C 2.722656 -9.539062 2.738281 -8.660156 2.8125 -7.703125 C 2.882812 -6.742188 3.140625 -5.921875 3.578125 -5.234375 C 4.003906 -4.679688 4.472656 -4.609375 4.984375 -5.015625 C 5.492188 -5.429688 5.945312 -6.066406 6.34375 -6.921875 C 6.644531 -7.609375 6.878906 -8.289062 7.046875 -8.96875 C 7.222656 -9.644531 7.332031 -10.164062 7.375 -10.53125 C 7.425781 -10.6875 7.453125 -10.789062 7.453125 -10.84375 C 7.523438 -11.132812 7.601562 -11.414062 7.6875 -11.6875 C 7.8125 -12.101562 7.929688 -12.507812 8.046875 -12.90625 C 8.265625 -13.664062 8.800781 -13.984375 9.65625 -13.859375 C 10.1875 -13.816406 10.472656 -13.5625 10.515625 -13.09375 C 10.566406 -12.445312 10.578125 -11.804688 10.546875 -11.171875 C 10.523438 -10.503906 10.492188 -9.847656 10.453125 -9.203125 C 10.398438 -8.273438 10.359375 -7.351562 10.328125 -6.4375 C 10.304688 -5.113281 10.570312 -4.34375 11.125 -4.125 C 11.6875 -3.90625 12.363281 -4.046875 13.15625 -4.546875 C 13.957031 -5.046875 14.726562 -5.726562 15.46875 -6.59375 C 15.53125 -6.664062 15.613281 -6.765625 15.71875 -6.890625 C 15.863281 -7.085938 16.039062 -7.300781 16.25 -7.53125 C 16.46875 -7.769531 16.671875 -7.972656 16.859375 -8.140625 C 17.054688 -8.316406 17.21875 -8.414062 17.34375 -8.4375 Z M 17.34375 -8.4375 "/></g></g></g><g fill="#5d959b" fill-opacity="1"><g transform="translate(278.091791, 243.809805)"><g><path d="M 12.109375 -7.8125 C 12.296875 -8.269531 12.5 -8.5 12.71875 -8.5 C 12.945312 -8.5 13.023438 -8.269531 12.953125 -7.8125 C 12.578125 -6.675781 12.132812 -5.582031 11.625 -4.53125 C 11.113281 -3.488281 10.414062 -2.554688 9.53125 -1.734375 C 8.851562 -1.054688 8.050781 -0.625 7.125 -0.4375 C 5.863281 -0.257812 4.820312 -0.410156 4 -0.890625 C 3.175781 -1.367188 2.523438 -2.054688 2.046875 -2.953125 C 1.566406 -3.859375 1.207031 -4.84375 0.96875 -5.90625 C 0.738281 -6.976562 0.585938 -8.019531 0.515625 -9.03125 C 0.335938 -10.925781 0.207031 -13.421875 0.125 -16.515625 C 0.0390625 -19.617188 0.0703125 -22.898438 0.21875 -26.359375 C 0.363281 -29.816406 0.703125 -33.019531 1.234375 -35.96875 C 1.765625 -38.925781 2.546875 -41.210938 3.578125 -42.828125 C 4.171875 -43.617188 4.859375 -44.019531 5.640625 -44.03125 C 6.429688 -44.050781 7.132812 -43.691406 7.75 -42.953125 C 8.164062 -42.378906 8.476562 -41.773438 8.6875 -41.140625 C 8.90625 -40.503906 9.046875 -39.851562 9.109375 -39.1875 C 9.335938 -36.914062 9.3125 -34.519531 9.03125 -32 C 8.75 -29.476562 8.304688 -26.785156 7.703125 -23.921875 C 7.097656 -21.054688 6.375 -18.535156 5.53125 -16.359375 C 4.695312 -14.179688 4 -12.453125 3.4375 -11.171875 C 3.132812 -10.660156 3.023438 -9.882812 3.109375 -8.84375 C 3.203125 -7.707031 3.414062 -6.523438 3.75 -5.296875 C 4.082031 -4.066406 4.546875 -3.09375 5.140625 -2.375 C 5.691406 -1.789062 6.3125 -1.609375 7 -1.828125 C 7.695312 -2.054688 8.390625 -2.523438 9.078125 -3.234375 C 9.765625 -3.953125 10.367188 -4.734375 10.890625 -5.578125 C 11.421875 -6.421875 11.828125 -7.164062 12.109375 -7.8125 Z M 3.171875 -24.984375 C 3.097656 -24.242188 3.03125 -23.125 2.96875 -21.625 C 2.914062 -20.132812 2.859375 -18.617188 2.796875 -17.078125 C 2.753906 -15.359375 2.707031 -14.015625 2.65625 -13.046875 C 3.195312 -14.273438 3.832031 -16.0625 4.5625 -18.40625 C 5.289062 -20.757812 5.953125 -23.53125 6.546875 -26.71875 C 7.148438 -29.90625 7.539062 -33.359375 7.71875 -37.078125 C 7.613281 -39.242188 7.351562 -40.710938 6.9375 -41.484375 C 6.519531 -42.253906 6.0625 -42.320312 5.5625 -41.6875 C 5.070312 -41.050781 4.679688 -39.710938 4.390625 -37.671875 C 3.941406 -34.273438 3.597656 -30.878906 3.359375 -27.484375 C 3.285156 -26.640625 3.222656 -25.804688 3.171875 -24.984375 Z M 3.171875 -24.984375 "/></g></g></g><g fill="#5d959b" fill-opacity="1"><g transform="translate(290.01814, 243.809805)"><g><path d="M 12.3125 -8.0625 C 12.925781 -8.65625 13.191406 -8.800781 13.109375 -8.5 C 13.023438 -8.207031 12.6875 -7.671875 12.09375 -6.890625 C 11.5 -6.117188 10.757812 -5.28125 9.875 -4.375 C 9 -3.46875 8.066406 -2.679688 7.078125 -2.015625 C 6.097656 -1.347656 5.164062 -0.988281 4.28125 -0.9375 C 3.195312 -0.9375 2.328125 -1.257812 1.671875 -1.90625 C 1.015625 -2.550781 0.546875 -3.398438 0.265625 -4.453125 C -0.015625 -5.515625 -0.128906 -6.660156 -0.078125 -7.890625 C -0.0234375 -9.265625 0.0195312 -10.640625 0.0625 -12.015625 C 0.0820312 -12.703125 0.109375 -13.378906 0.140625 -14.046875 C 0.191406 -15.148438 0.226562 -16.253906 0.25 -17.359375 C 0.269531 -17.710938 0.210938 -18.003906 0.078125 -18.234375 C -0.0546875 -18.472656 -0.296875 -18.601562 -0.640625 -18.625 C -1.023438 -18.644531 -1.515625 -18.65625 -2.109375 -18.65625 C -2.628906 -18.65625 -3.070312 -18.65625 -3.4375 -18.65625 C -3.957031 -18.707031 -4.300781 -18.84375 -4.46875 -19.0625 C -4.644531 -19.28125 -4.507812 -19.503906 -4.0625 -19.734375 C -3.75 -19.859375 -3.367188 -19.925781 -2.921875 -19.9375 C -2.484375 -19.945312 -2.050781 -19.941406 -1.625 -19.921875 C -1.351562 -19.890625 -1.117188 -19.875 -0.921875 -19.875 C -0.265625 -19.875 0.132812 -19.976562 0.28125 -20.1875 C 0.425781 -20.394531 0.515625 -20.804688 0.546875 -21.421875 C 0.597656 -22.066406 0.632812 -22.722656 0.65625 -23.390625 C 0.675781 -23.734375 0.703125 -24.078125 0.734375 -24.421875 C 0.734375 -24.941406 0.867188 -25.40625 1.140625 -25.8125 C 1.429688 -26.207031 1.800781 -26.359375 2.25 -26.265625 C 2.632812 -26.171875 2.851562 -25.925781 2.90625 -25.53125 C 2.9375 -24.882812 2.953125 -24.234375 2.953125 -23.578125 C 2.972656 -23.203125 2.972656 -22.832031 2.953125 -22.46875 C 2.953125 -22.070312 2.960938 -21.660156 2.984375 -21.234375 C 2.960938 -20.660156 3.03125 -20.296875 3.1875 -20.140625 C 3.34375 -19.992188 3.726562 -19.921875 4.34375 -19.921875 C 5.351562 -19.921875 6.347656 -19.921875 7.328125 -19.921875 C 7.773438 -19.921875 9.101562 -19.945312 11.3125 -20 C 13.53125 -20.0625 14.726562 -19.882812 14.90625 -19.46875 C 15.082031 -19.050781 13.679688 -18.804688 10.703125 -18.734375 C 8.898438 -18.640625 7.507812 -18.59375 6.53125 -18.59375 C 5.863281 -18.613281 5.269531 -18.625 4.75 -18.625 C 3.863281 -18.625 3.316406 -18.46875 3.109375 -18.15625 C 2.898438 -17.851562 2.804688 -17.238281 2.828125 -16.3125 C 2.804688 -15.507812 2.769531 -14.546875 2.71875 -13.421875 C 2.570312 -11.109375 2.5 -8.75 2.5 -6.34375 C 2.550781 -4.6875 2.84375 -3.609375 3.375 -3.109375 C 3.914062 -2.617188 4.617188 -2.53125 5.484375 -2.84375 C 6.347656 -3.15625 7.28125 -3.703125 8.28125 -4.484375 C 9.28125 -5.273438 10.269531 -6.125 11.25 -7.03125 C 11.46875 -7.3125 11.726562 -7.570312 12.03125 -7.8125 C 12.132812 -7.90625 12.226562 -7.988281 12.3125 -8.0625 Z M 12.3125 -8.0625 "/></g></g></g><path stroke-linecap="butt" transform="matrix(0.000000000000000092, -1.50263, 1.6, 0.000000000000000098, 64.396253, 230.788607)" fill="none" stroke-linejoin="miter" d="M -0.000302972 -0.00107614 L 62.392924 -0.00107614 " stroke="#000000" stroke-width="1" stroke-opacity="1" stroke-miterlimit="4"/><path stroke-linecap="butt" transform="matrix(0.000000000000000091, -1.494163, 1.5, 0.000000000000000092, 310.678431, 202.007521)" fill="none" stroke-linejoin="miter" d="M -0.000195002 0.000837468 L 44.174298 0.000837468 " stroke="#000000" stroke-width="1" stroke-opacity="1" stroke-miterlimit="4"/></svg>